<svg width="1543" height="453" viewBox="0 0 1543 453" fill="none" xmlns="http://www.w3.org/2000/svg">
<g clip-path="url(#clip0_145_286)">
<rect width="1543" height="453" fill="#DC2626"/>
<g clip-path="url(#clip1_145_286)">
<path d="M88.07 -3.06996C88.07 20.0847 79.257 42.3714 63.4207 59.2638C47.5844 76.1561 25.9123 86.3877 2.80579 87.8804C-20.3007 89.3732 -43.1092 82.0153 -60.9874 67.301C-78.8656 52.5867 -90.473 31.6193 -93.4523 8.65709C-96.4317 -14.3051 -90.5595 -37.5405 -77.0284 -56.3301C-63.4974 -75.1197 -43.3219 -88.0548 -20.5995 -92.5083C2.12285 -96.9618 25.6885 -92.5998 45.3113 -80.3082C64.9342 -68.0167 79.143 -48.7171 85.0522 -26.3291L40.8762 -14.6692C37.9294 -25.834 30.8435 -35.4586 21.0576 -41.5884C11.2718 -47.7182 -0.480326 -49.8935 -11.8119 -47.6725C-23.1435 -45.4516 -33.2049 -39.0009 -39.9528 -29.6306C-46.7007 -20.2603 -49.6291 -8.6729 -48.1433 2.77828C-46.6575 14.2294 -40.8689 24.6858 -31.9532 32.0238C-23.0374 39.3617 -11.6629 43.0311 -0.139747 42.2867C11.3834 41.5422 22.1912 36.4398 30.0887 28.0156C37.9862 19.5915 42.3812 8.4772 42.3812 -3.06996H88.07Z" fill="#D9D9D9" fill-opacity="0.32"/>
</g>
<circle opacity="0.5" cx="1480.02" cy="416" r="68" fill="url(#paint0_linear_145_286)" fill-opacity="0.18"/>
<g clip-path="url(#clip2_145_286)">
<path d="M1456.85 275.322L1444.32 262.743L1431.79 275.322L1419.25 262.743L1444.32 237.584L1469.38 262.743L1456.85 275.322Z" stroke="white" stroke-opacity="0.36" stroke-width="4" stroke-linecap="square"/>
</g>
<path d="M1372.42 44.6608L1359.71 57.3715" stroke="#FFFCFC" stroke-opacity="0.39" stroke-width="2"/>
<path d="M1410.55 82.7928L1397.84 95.5035" stroke="#FFFCFC" stroke-opacity="0.39" stroke-width="2"/>
<path d="M1372.42 95.5035L1359.71 82.7928" stroke="#FFFCFC" stroke-opacity="0.39" stroke-width="2"/>
<path d="M1410.55 57.3713L1423.26 70.082L1410.55 82.7927" stroke="#FFFCFC" stroke-opacity="0.39" stroke-width="2"/>
<path d="M1410.55 57.3715L1397.84 44.6608" stroke="#FFFCFC" stroke-opacity="0.39" stroke-width="2"/>
<path d="M1397.84 44.6606L1385.13 31.95L1372.42 44.6606" stroke="#FFFCFC" stroke-opacity="0.39" stroke-width="2"/>
<path d="M1397.84 95.5034L1385.13 108.214L1372.42 95.5034" stroke="#FFFCFC" stroke-opacity="0.39" stroke-width="2"/>
<path d="M1359.71 57.3713L1347 70.082L1359.71 82.7927" stroke="#FFFCFC" stroke-opacity="0.39" stroke-width="2"/>
<path d="M1385.13 57.3695L1397.84 70.0802L1385.13 82.7909L1372.42 70.0802L1385.13 57.3695Z" stroke="#FFFCFC" stroke-opacity="0.39" stroke-width="2"/>
<path d="M1545.28 146.232C1545.02 151.749 1540.31 156.08 1534.88 155.069C1528.76 153.931 1522.79 152.011 1517.13 149.348C1508.45 145.263 1500.66 139.507 1494.2 132.41C1487.74 125.312 1482.74 117.012 1479.49 107.983C1476.24 98.9543 1474.8 89.3736 1475.25 79.788C1475.7 70.2024 1478.04 60.7997 1482.12 52.1166C1486.21 43.4335 1491.97 35.6402 1499.06 29.1816C1506.16 22.723 1514.46 17.7255 1523.49 14.4746C1529.37 12.3559 1535.49 11.0061 1541.69 10.4479C1547.2 9.95287 1551.47 14.707 1551.21 20.2237L1549.2 62.8965C1549.05 66.0627 1546.28 68.4035 1543.29 69.4773V69.4773C1541.49 70.1275 1539.83 71.127 1538.41 72.4187C1536.99 73.7104 1535.84 75.2691 1535.02 77.0057C1534.2 78.7423 1533.74 80.6229 1533.65 82.54C1533.56 84.4571 1533.84 86.3732 1534.49 88.179C1535.14 89.9848 1536.14 91.6448 1537.44 93.0643C1538.73 94.4838 1540.29 95.635 1542.02 96.4521V96.4521C1544.89 97.8016 1547.44 100.393 1547.29 103.559L1545.28 146.232Z" fill="#FFFEFE" fill-opacity="0.1"/>
<path opacity="0.2" d="M48.5363 155.914C53.9942 149.354 64.6318 152.204 66.0787 160.614L68.1824 172.842C68.772 176.269 71.1001 179.144 74.3301 180.434L85.8532 185.034C93.7783 188.197 94.3547 199.195 86.8037 203.17L75.8245 208.949C72.747 210.569 70.7322 213.672 70.504 217.142L69.69 229.523C69.1302 238.038 58.8488 241.984 52.7351 236.031L43.846 227.375C41.3543 224.949 37.781 223.991 34.41 224.847L22.3838 227.898C14.1126 229.997 7.182 221.439 10.9546 213.785L16.4399 202.656C17.9775 199.536 17.7839 195.842 15.9287 192.9L9.31011 182.406C4.7581 175.188 10.7561 165.952 19.2014 167.174L31.4807 168.952C34.9226 169.451 38.3763 168.125 40.6007 165.451L48.5363 155.914Z" fill="url(#paint1_linear_145_286)"/>
<ellipse opacity="0.5" cx="22.5" cy="462" rx="66.5" ry="66" fill="white" fill-opacity="0.18"/>
<path d="M157.75 334L170.5 347L183.25 334L196 347L170.5 373L145 347L157.75 334Z" stroke="white" stroke-opacity="0.36" stroke-width="4" stroke-linecap="square"/>
<path opacity="0.2" d="M157.75 358L170.5 370.667L183.25 358L196 370.667L170.5 396L145 370.667L157.75 358Z" stroke="white" stroke-opacity="0.36" stroke-width="4" stroke-linecap="square"/>
</g>
<defs>
<linearGradient id="paint0_linear_145_286" x1="1480.02" y1="348" x2="1480.02" y2="484" gradientUnits="userSpaceOnUse">
<stop stop-color="white"/>
<stop offset="1" stop-color="white" stop-opacity="0"/>
</linearGradient>
<linearGradient id="paint1_linear_145_286" x1="62.4028" y1="139.248" x2="31.9066" y2="253.061" gradientUnits="userSpaceOnUse">
<stop stop-color="white"/>
<stop offset="1" stop-color="white" stop-opacity="0"/>
</linearGradient>
<clipPath id="clip0_145_286">
<rect width="1543" height="453" fill="white"/>
</clipPath>
<clipPath id="clip1_145_286">
<rect width="93" height="93" fill="white" transform="translate(-4 -4)"/>
</clipPath>
<clipPath id="clip2_145_286">
<rect width="74" height="62" fill="white" transform="translate(1407.02 225)"/>
</clipPath>
</defs>
</svg>
